<?xml version="1.0" standalone="no"?>
<!DOCTYPE svg PUBLIC "-//W3C//DTD SVG 20010904//EN"
 "http://www.w3.org/TR/2001/REC-SVG-20010904/DTD/svg10.dtd">
<svg version="1.0" xmlns="http://www.w3.org/2000/svg"
 width="1024.000000pt" height="1024.000000pt" viewBox="0 0 1024.000000 1024.000000"
 preserveAspectRatio="xMidYMid meet">
<metadata>
Created by potrace 1.14, written by Peter Selinger 2001-2017
</metadata>
<g transform="translate(0.000000,1024.000000) scale(0.100000,-0.100000)"
fill="#000000" stroke="none">
<path d="M4997 10224 c-1 -1 -67 -4 -147 -8 -80 -3 -167 -9 -195 -12 -91 -10
-349 -43 -380 -49 -16 -3 -64 -12 -105 -20 -730 -135 -1447 -446 -2050 -887
-63 -46 -124 -91 -135 -100 -255 -208 -254 -207 -466 -418 -191 -190 -304
-316 -445 -500 -558 -727 -908 -1578 -1018 -2475 -15 -123 -20 -176 -32 -325
-8 -103 -8 -532 0 -615 3 -33 8 -96 12 -140 6 -79 38 -342 49 -400 3 -16 13
-68 21 -115 24 -135 99 -433 145 -575 159 -499 391 -967 691 -1396 344 -490
763 -907 1275 -1267 56 -40 104 -72 106 -72 2 0 37 -22 78 -48 503 -330 1201
-601 1824 -707 11 -2 47 -8 80 -14 371 -63 896 -83 1260 -46 114 11 162 17
185 20 14 2 48 6 75 10 95 11 340 57 465 86 792 186 1524 559 2155 1098 147
126 381 355 490 481 26 30 60 69 74 85 15 17 61 73 102 125 476 599 810 1288
984 2033 27 114 79 412 90 512 3 33 8 74 10 90 2 17 6 59 9 95 3 36 9 94 12
130 8 88 8 535 0 640 -30 397 -91 747 -191 1095 -269 936 -819 1797 -1555
2435 -41 36 -77 67 -80 70 -3 3 -45 37 -95 76 -841 663 -1817 1035 -2885 1100
-95 5 -408 12 -413 8z"/>
</g>
</svg>
