<?xml version="1.0" standalone="no"?>
<!DOCTYPE svg PUBLIC "-//W3C//DTD SVG 20010904//EN"
 "http://www.w3.org/TR/2001/REC-SVG-20010904/DTD/svg10.dtd">
<svg version="1.0" xmlns="http://www.w3.org/2000/svg"
 width="1024.000000pt" height="1024.000000pt" viewBox="0 0 1024.000000 1024.000000"
 preserveAspectRatio="xMidYMid meet">
<metadata>
Created by potrace 1.14, written by Peter Selinger 2001-2017
</metadata>
<g transform="translate(0.000000,1024.000000) scale(0.100000,-0.100000)"
fill="#000000" stroke="none">
<path d="M3595 8891 c-136 -29 -393 -175 -574 -326 -260 -217 -428 -501 -475
-808 -63 -406 6 -875 259 -1756 30 -107 55 -200 55 -207 0 -7 -10 -16 -22 -20
-13 -3 -93 -40 -178 -82 -85 -41 -211 -98 -280 -127 -212 -88 -377 -165 -575
-265 -458 -232 -764 -438 -1001 -675 -301 -301 -410 -579 -344 -879 29 -129
108 -247 228 -340 283 -217 721 -233 1285 -45 659 219 1107 554 1318 984 113
233 159 442 159 735 0 108 -14 317 -25 386 l-5 31 162 68 c2602 1082 4458
1671 5821 1845 87 11 174 20 195 20 66 0 69 10 27 86 -21 38 -78 138 -128 222
-85 144 -92 152 -121 152 -51 0 -433 -58 -634 -95 -1263 -239 -3018 -818
-5161 -1704 -135 -56 -248 -98 -252 -94 -8 9 -69 201 -118 373 -46 160 -97
371 -126 515 -14 72 -28 140 -31 153 -4 18 9 37 59 90 99 104 301 335 418 478
272 332 444 594 515 784 24 64 28 90 28 180 1 95 -2 110 -26 156 -44 84 -121
139 -235 169 -72 19 -117 18 -218 -4z m-283 -783 c-106 -141 -216 -267 -226
-257 -10 10 61 137 115 205 51 64 198 199 207 190 2 -3 -41 -65 -96 -138z
m-355 -3030 c-8 -285 -39 -410 -150 -592 -91 -150 -169 -232 -314 -329 -262
-175 -498 -292 -725 -361 -194 -58 -272 -70 -478 -70 -170 -1 -190 1 -242 22
-80 32 -118 78 -118 143 0 332 548 747 1600 1212 288 127 402 175 419 176 11
1 13 -33 8 -201z"/>
<path d="M7515 5435 c-165 -30 -320 -116 -520 -287 -170 -146 -411 -406 -629
-678 -37 -47 -71 -86 -75 -87 -3 -2 -14 29 -23 69 -56 230 -219 421 -411 480
-132 40 -331 12 -490 -68 -161 -82 -400 -276 -664 -539 -116 -116 -209 -207
-207 -201 2 6 51 177 109 379 122 430 126 461 74 565 -32 65 -66 99 -133 135
-33 18 -58 22 -131 22 -81 0 -95 -3 -144 -30 -64 -35 -122 -99 -144 -157 -9
-24 -163 -545 -343 -1158 -364 -1238 -354 -1195 -304 -1308 43 -98 168 -182
274 -182 112 0 208 59 287 177 72 106 139 197 303 408 462 597 876 1048 1148
1253 68 51 157 102 177 102 38 0 39 -400 2 -602 -39 -213 -85 -351 -172 -516
-39 -75 -43 -89 -43 -155 0 -92 28 -160 93 -220 66 -62 121 -81 218 -75 139 8
192 51 323 260 206 329 585 862 836 1176 123 155 311 358 414 448 107 93 230
178 241 167 16 -16 31 -199 25 -303 -14 -216 -56 -442 -171 -900 -123 -492
-155 -702 -156 -1004 0 -200 12 -313 47 -446 86 -329 337 -586 645 -660 215
-51 485 -28 750 65 83 29 104 46 243 205 204 232 392 491 548 755 97 165 204
372 182 354 -167 -140 -228 -189 -330 -266 -339 -256 -649 -422 -930 -500 -82
-23 -120 -27 -219 -28 -110 0 -124 2 -165 25 -136 77 -193 311 -160 665 16
170 45 315 125 630 86 338 135 563 167 765 18 122 22 185 22 400 0 254 0 255
-31 370 -51 187 -98 271 -208 371 -69 64 -129 96 -220 119 -89 23 -130 24
-230 5z"/>
</g>
</svg>
