<svg width="130" height="90" xmlns="http://www.w3.org/2000/svg"><g fill-rule="nonzero" fill="none"><path d="M35.134 82.088H3.425s-.643-9.418 3.16-9.525c3.803-.107 3.375 4.174 8.142-1.713 4.767-5.886 10.552-5.565 11.301-2.086.75 3.478-1.446 6.26 2.571 5.404 4.018-.856 9.802 1.391 6.535 7.92Z" fill="#98D1DD"/><path d="m18.86 82.088-.107-.004c.25-6.234 1.557-10.239 2.61-12.501 1.141-2.456 2.242-3.45 2.253-3.46l.072.08c-.011.01-1.099.994-2.232 3.434-1.046 2.252-2.346 6.24-2.596 12.45ZM30.276 82.088l-.102-.03c1.23-4.296 4.129-7.008 4.158-7.034l.071.08c-.028.026-2.905 2.72-4.127 6.984ZM8.478 82.088l-.107-.015c.424-3.029-.342-5.379-1.06-6.817C6.536 73.7 5.65 72.85 5.64 72.84l.075-.077c.009.008.909.872 1.694 2.446.724 1.451 1.497 3.823 1.07 6.879Z" fill="#F2F2F2"/><path d="M39.506 82.23H.064l-.009-.135c-.023-.333-.526-8.193 2.014-10.997.568-.627 1.252-.956 2.034-.978 1.655-.047 2.696.574 3.535 1.073 1.582.941 2.627 1.563 6.427-3.145 4.116-5.1 8.558-6.198 11.11-5.588 1.65.394 2.787 1.509 3.12 3.058.315 1.466.215 2.844.134 3.952-.086 1.184-.154 2.12.331 2.544.405.354 1.214.386 2.545.101 2.707-.579 6.485-.083 8.381 2.373 1.02 1.321 1.824 3.723-.14 7.662l-.04.08ZM.333 81.941h38.995c1.464-2.978 1.51-5.493.131-7.278-1.739-2.253-5.388-2.846-8.094-2.268-1.446.31-2.308.259-2.793-.165-.594-.519-.52-1.518-.429-2.782.08-1.09.178-2.445-.128-3.87-.309-1.437-1.368-2.472-2.906-2.84-2.471-.59-6.789.493-10.821 5.49-3.956 4.9-5.147 4.192-6.796 3.212-.85-.506-1.814-1.079-3.381-1.034-.7.02-1.316.317-1.83.884C0 73.811.278 80.88.334 81.941Z" fill="#CFCCE0"/><path d="M124.386 82.088h-31.71s-.642-9.418 3.16-9.525c3.804-.107 3.375 4.174 8.142-1.713 4.767-5.886 10.552-5.565 11.302-2.086.75 3.478-1.446 6.26 2.571 5.404 4.017-.856 9.802 1.391 6.535 7.92Z" fill="#98D1DD"/><path d="m107.97 82.088-.107-.004c.251-6.234 1.558-10.239 2.61-12.501 1.142-2.456 2.243-3.45 2.254-3.46l.071.08c-.01.01-1.098.994-2.231 3.434-1.047 2.252-2.346 6.24-2.596 12.45ZM119.527 82.088l-.102-.03c1.231-4.296 4.13-7.008 4.159-7.034l.071.08c-.029.026-2.906 2.72-4.128 6.984ZM97.73 82.088l-.107-.015c.424-3.029-.342-5.379-1.06-6.817-.776-1.557-1.663-2.407-1.671-2.416l.074-.077c.01.008.91.872 1.694 2.446.724 1.451 1.498 3.823 1.07 6.879Z" fill="#F2F2F2"/><path d="M128.758 82.23H89.316l-.01-.135c-.022-.333-.525-8.193 2.015-10.997.568-.627 1.252-.956 2.033-.978 1.656-.047 2.697.574 3.536 1.073 1.582.941 2.627 1.563 6.427-3.145 4.116-5.1 8.557-6.198 11.11-5.588 1.65.394 2.787 1.509 3.12 3.058.315 1.466.214 2.844.134 3.952-.086 1.184-.155 2.12.33 2.544.406.354 1.215.386 2.546.101 2.707-.579 6.485-.083 8.38 2.373 1.02 1.321 1.824 3.723-.14 7.662l-.04.08Zm-39.173-.288h38.995c1.464-2.978 1.51-5.493.131-7.278-1.74-2.253-5.389-2.846-8.095-2.268-1.446.31-2.307.259-2.793-.165-.593-.519-.52-1.518-.428-2.782.08-1.09.178-2.445-.128-3.87-.309-1.437-1.368-2.472-2.906-2.84-2.472-.59-6.789.493-10.821 5.49-3.956 4.9-5.147 4.192-6.796 3.212-.85-.506-1.815-1.079-3.382-1.034-.7.02-1.315.317-1.829.884-2.283 2.52-2.004 9.588-1.948 10.65Z" fill="#CFCCE0"/><path d="M61.123 55.243c-2.787 0-5.23 2.904-6.578 7.24-.095.304-.184.617-.268.934a27 27 0 0 0-.839 6.803c0 8.258 3.447 14.976 7.685 14.976 4.237 0 7.684-6.718 7.684-14.976 0-8.259-3.447-14.977-7.684-14.977Zm0 29.716c-4.106 0-7.446-6.613-7.446-14.74a26.846 26.846 0 0 1 .85-6.829c.078-.298.162-.59.252-.877 1.311-4.216 3.664-7.032 6.344-7.032 4.105 0 7.446 6.612 7.446 14.739 0 8.126-3.34 14.739-7.446 14.739Z" fill="#3F3D56"/><path d="M62.956 78.98c-1.463 0-2.609-3.817-2.609-8.69 0-4.872 1.146-8.689 2.609-8.689 1.462 0 2.608 3.817 2.608 8.69 0 4.872-1.146 8.689-2.608 8.689Zm0-17.14c-1.286 0-2.372 3.87-2.372 8.45 0 4.581 1.086 8.451 2.372 8.451 1.285 0 2.37-3.87 2.37-8.45 0-4.581-1.085-8.451-2.37-8.451Z" fill="#3F3D56"/><ellipse fill="#CFCCE0" cx="63.308" cy="70.22" rx="1" ry="1.978"/><path fill="#3F3D56" d="m61.052 43.152 16.215-.059v6.408l-16.215.656zM47.049 64.992l-.238-.013.722-13.127h14.788v.239H47.759zM47.044 86.185l-8.27-1.457.049-.238 8.27 1.458zM48.802 89.167l.02-.238 10.099.834-.02.237z"/><path d="M72.19 64.956a20.4 20.4 0 0 0-.251.86l-.249.028-7.73.844-17.713-1.751 18.425-.934 7.286.923.233.03Z" fill="#3F3D56"/><path d="M68.227 22.39s-2.57-.917-4.222 2.75c-1.652 3.666-4.222 7.7-4.222 7.7l1.469.366s.367-2.566 1.285-2.933l-.368 3.3s11.014 3.85 15.97-.367l-.183-1.283s.734.183.734 1.283l.55-.55s-.55-1.1-2.202-2.566c-1.084-.963-1.457-2.794-1.585-3.94a4.764 4.764 0 0 0-1.099-2.595c-1.098-1.271-3.098-2.622-6.127-1.165Z" fill="#2F2E41"/><path d="m54.055 25.856-1.056-11.191s-2.11-6.072 1.056-5.596 1.29 5.12 1.29 5.12l1.76 11.667h-3.05ZM45.611 76.719l-1.197 4.035 2.273 1.899 1.675-5.103zM54.783 79.686l-1.204 4.297 4.213 2.626s.12-4.894.722-5.849l-3.731-1.074Z" fill="#FFB9B9"/><path d="m59.948 56.88-.593 1.191s-6.762-3.096-8.542 1.191c-1.779 4.288-5.694 17.865-5.694 17.865l3.44 1.429 6.288-14.41 14.354-.358.593-7.98-9.846 1.072Z" fill="#2F2E41"/><path d="M64.844 58.926s-9.745-2.02-10.458 2.852c-.713 4.871.357 14.138.476 14.376.119.237-.476 4.633-.476 4.633l4.278.594s2.733-12.95 1.545-16.276l8.04-.498c2.776-.171 5.043-2.363 5.203-5.139.06-1.062-.205-2.027-1.122-2.561-2.852-1.664-8.08-1.664-8.08-1.664l.594 3.683ZM46.083 80.718s-.837-1.785-2.032-.952c-1.194.833-3.942 2.619-3.942 2.619s-4.251 1.49-.478 2.499c3.356.897 4.181.714 4.181.714s2.748.476 3.107.238c.358-.238.597-4.046.597-4.046s-1.672-.358-1.433-1.072ZM55.363 84.35s-1.194-1.67-2.03-.954c-.836.716-3.822 2.744-3.822 2.744s-5.016 1.43-.597 2.743c4.419 1.312 9.315 1.073 9.435.596.12-.477-.24-3.936-.24-3.936s-2.507-.119-2.746-1.192Z" fill="#2F2E41"/><ellipse fill="#FFB9B9" cx="69.582" cy="29.882" rx="4.3" ry="4.309"/><path d="M66.414 31.93s-.238 4.86-1.426 5.215c-1.188.356-4.515 4.266-2.97 5.451 1.544 1.185 10.455.356 10.455.356l-.832-6.162s-1.9-1.304-.356-3.556l-4.871-1.303Z" fill="#FFB9B9"/><path d="m66.297 40.025-.83-3.917-2.731-1.069-2.256 5.224s-2.553 16.916-1.84 17.153c.4.141.823.202 1.246.178 0 0 3.8-1.187 4.987-.593 1.187.593 7.36 1.068 7.36 1.068s4.275-2.255 4.037-4.274c-.237-2.018 0-13.295 0-13.295l-.534-5.045-4.684.732-4.755 3.838Z" fill="#CFCCE0"/><path fill="#CFCCE0" d="m62.885 35.592-.119-.716-3.337-4.057-1.907-6.8-4.648 1.789 3.337 8.233 4.767 6.085z"/><path d="M63.915 30.377s1.474-2.025 2.764-2.394c1.29-.368 1.474-2.209 1.474-2.209s3.316 3.682 5.343 3.866c2.026.184.184-4.418.184-4.418l-3.685-.92-3.5.368-2.764 1.84.184 3.867Z" fill="#2F2E41"/><path fill="#3F3D56" d="m77.735 57.943-.115-4.864H66.577l-.353 13.043-.237-.006.359-13.275h11.503l.004.115.119 4.979zM77.503 51.287h-.236v-9.042l3.807 1.11-.066.228-3.505-1.023z"/><path d="M78.606 57.786c-2.786 0-5.23 2.904-6.577 7.24-.095.305-.185.617-.268.935a27 27 0 0 0-.839 6.802c0 8.258 3.447 14.976 7.684 14.976 4.238 0 7.685-6.718 7.685-14.976 0-8.258-3.447-14.977-7.685-14.977Zm0 29.716c-4.105 0-7.446-6.613-7.446-14.739a26.846 26.846 0 0 1 .85-6.83c.079-.298.163-.59.252-.877 1.312-4.216 3.665-7.032 6.344-7.032 4.106 0 7.446 6.612 7.446 14.739 0 8.126-3.34 14.739-7.446 14.739Z" fill="#3F3D56"/><path d="M80.44 81.381c-1.463 0-2.61-3.816-2.61-8.689 0-4.872 1.147-8.689 2.61-8.689 1.462 0 2.608 3.817 2.608 8.69 0 4.872-1.146 8.688-2.609 8.688Zm0-17.14c-1.286 0-2.372 3.87-2.372 8.451s1.086 8.45 2.371 8.45c1.286 0 2.372-3.869 2.372-8.45 0-4.58-1.086-8.45-2.372-8.45Z" fill="#3F3D56"/><ellipse fill="#CFCCE0" cx="80.651" cy="72.763" rx="1" ry="1.978"/><path fill="#3F3D56" d="m79.1 41.962 2.538.952-.484 1.309-2.054-.833zM69.23 52.276v1.837h7.05v-1.715zM51.041 51.287v1.837h7.05v-1.715zM75.293 11.02H26.93V0h48.362v11.02Zm-48.078-.286h47.793V.286H27.215v10.448Z"/><path fill="#98D1DD" d="M30.738 3.673h5.358v5.369h-5.358z"/><path d="M35.39 8.336h-5.64V2.684h5.64v5.652Zm-5.357-.283h5.075V2.967h-5.075v5.086ZM44.273 3.815h25.38v1h-25.38zM44.273 5.793h25.38v1h-25.38zM44.273 7.912h25.38v1h-25.38zM64.013 46.6h-.057v-1.595a.93.93 0 0 0-.267-.653.906.906 0 0 0-.645-.27h-3.336a.906.906 0 0 0-.645.27.93.93 0 0 0-.267.653v8.75c0 .245.096.48.267.653.171.173.403.27.645.27h3.336a.906.906 0 0 0 .645-.27.93.93 0 0 0 .267-.653v-6.02h.057V46.6Z" fill="#3F3D56"/><circle fill="#D0CDE1" cx="61.334" cy="46.907" r="1"/><path d="m75.646 52.441-11.21-.213s-6.26 1.45-5.422-1.719c.837-3.168 5.221-.724 5.221-.724l11.763-.448-.352 3.104Z" fill="#FFB9B9"/><path d="m74.52 36.138 1.07-.832s1.786-.95 2.143 2.377c.357 3.327 2.975 14.378.357 14.497-2.618.119-9.283.238-9.283.238l.714-3.684 5.475-.357-.476-12.239Z" fill="#CFCCE0"/><path fill="#000" opacity=".15" d="m74.87 41.256-.36 6.833-5.28 1.079 4.8-1.918z"/></g></svg>