<svg width="125" height="90" xmlns="http://www.w3.org/2000/svg"><g transform="translate(0 1)" fill="none" fill-rule="evenodd"><path d="M52.984 61.064s16.464-1.944 22.226-5.022c5.762-3.078 48.567-4.536 48.567 5.022s-49.225 13.77-49.225 13.77l-25.848-1.457 4.28-12.313Z" fill="#FBBEBE" fill-rule="nonzero"/><path d="M52.984 61.064s16.464-1.944 22.226-5.022c5.762-3.078 48.567-4.536 48.567 5.022s-49.225 13.77-49.225 13.77l-25.848-1.457 4.28-12.313Z" fill="#000" fill-rule="nonzero" opacity=".1"/><path d="m57.782 59.307-3.458 9.917-54.18.65v-14.63s20.75-4.715 37.218 5.364c0 0 19.432-2.276 20.42-1.3Z" fill="#98D1DD" fill-rule="nonzero"/><path d="m57.782 59.165-3.458 9.917-54.18.65v-14.63s20.75-4.715 37.218 5.364c0 0 19.432-2.276 20.42-1.3Z" fill="#000" fill-rule="nonzero" opacity=".1"/><path d="M119.454 55.072c0 .549-1.257.956-1.38 1.486-.123.525.624 1.324.388 1.825a9.882 9.882 0 0 1-.863 1.47c-.31.433-1.266.37-1.658.777-.384.37-.79.716-1.217 1.037-.416.339-.98.41-1.453.722-.45.296-.396 1.384-.893 1.654-.476.258-1.204.05-1.72.283-.495.222-.756 1.028-1.285 1.225-.51.19-1.142.108-1.682.272-.522.16-1.106.134-1.654.268-.531.13-.937.91-1.49 1.015-.539.103-1.17-.17-1.727-.093-.544.076-1.176-.598-1.736-.547-.548.05-1.064.362-1.624.387-.55.025-1.094.262-1.655.262-.561 0-1.14.515-1.69.49-.56-.025-1.068-.806-1.616-.856-.56-.05-1.227.765-1.771.69-.557-.078-.998-.877-1.537-.98-.553-.105-1.267.466-1.799.336-.547-.134-.872-1.063-1.394-1.222-.54-.165-1.209.058-1.72-.132-.529-.197-1.173-.165-1.669-.388-.515-.232-.886-.781-1.361-1.04-.498-.27-.727-.94-1.177-1.236-.473-.312-1.194-.272-1.61-.61-.44-.359-1.262-.377-1.633-.762-.392-.407-.55-1.09-.86-1.525-.326-.457.313-1.424.086-1.907-.236-.501-1.224-.705-1.346-1.23a7.571 7.571 0 0 1-.194-1.671c0-.549.845-.968.968-1.498.123-.525-.499-1.28-.262-1.78.227-.484.198-1.227.524-1.684.31-.434 1.082-.604 1.474-1.011.371-.385 1.035-.493 1.474-.85.416-.34.363-1.361.836-1.673.45-.297 1.078-.432 1.576-.702.475-.258 1.148-.215 1.664-.447.495-.222 1.27.216 1.8.02.51-.19.924-.606 1.464-.77.522-.16.767-1.373 1.315-1.508.531-.13 1.185.086 1.738-.019.539-.102 1.263.856 1.82.778.544-.076.951-1.355 1.51-1.406.548-.05 1.166.613 1.727.588.55-.025 1.102.363 1.663.363.56 0 1.12-.533 1.67-.508.56.025 1.055.73 1.603.78.56.05 1.246-1.02 1.79-.945.557.078.987.906 1.526 1.008.553.105 1.246-.409 1.777-.278.548.134.877 1.013 1.4 1.173.539.164.871.785 1.382.975.53.197 1.512-.725 2.008-.502.515.232.96.633 1.436.891.498.27 1.29.134 1.739.431.473.312.59 1.15 1.006 1.488.439.358 1.163.466 1.534.85.392.408.447 1.137.756 1.571.326.458.316 1.091.544 1.574.236.502.866.881.989 1.406.123.53.49 1.136.49 1.685Z" fill="#3F3D56" fill-rule="nonzero"/><path d="M60.419 65.138s18.637-9.362 30.676-5.81c12.04 3.55 28.862-2.584 30.841-.485 1.98 2.098 4.783 24.698-18.966 25.99-23.75 1.29-44.035-3.875-44.035-3.875l1.484-15.82Z" fill="#FBBEBE" fill-rule="nonzero"/><path d="M55.936 64.24s7.352-.456 7.023 2.133c-.33 2.59-.66 22.656-2.637 23.142C58.344 90 42.687 90 36.259 90H0V58.975s25.71-1.503 38.566 4.809c0 0 15.456-.22 17.37.457Z" fill="#98D1DD" fill-rule="nonzero"/><path d="M90.464 15.732c-1.443.08-2.717.947-3.29 2.241-.822 1.937.237 4.212 1.827 5.625 1.59 1.412 3.632 2.22 5.488 3.281 2.492 1.425 4.732 3.404 5.98 5.944 1.246 2.54 1.379 5.687-.087 8.113-1.36 2.252-3.835 3.6-6.194 4.844" stroke="#3F3D56"/><path d="M96.949 3.827c-1.444.08-2.718.947-3.29 2.24-.823 1.938.237 4.213 1.826 5.625 1.59 1.413 3.633 2.22 5.488 3.282 2.493 1.425 4.732 3.404 5.98 5.944 1.247 2.54 1.38 5.686-.087 8.113-1.36 2.252-3.834 3.6-6.194 4.843" stroke="#3F3D56"/><path d="M118.734 6.465a3.865 3.865 0 0 0-3.988-.19c-1.857 1.04-2.446 3.469-2.079 5.532.368 2.064 1.47 3.918 2.266 5.863 1.069 2.611 1.594 5.509.987 8.259-.607 2.75-2.469 5.314-5.138 6.358-2.478.969-5.266.56-7.899.136" stroke="#3F3D56"/><ellipse fill="#57B894" fill-rule="nonzero" cx="99.497" cy="29.126" rx="3.963" ry="1.913"/><ellipse stroke="#3F3D56" cx="99.065" cy="28.701" rx="3.963" ry="1.913"/><ellipse fill="#57B894" fill-rule="nonzero" cx="108.143" cy="27.425" rx="3.963" ry="1.913"/><ellipse stroke="#3F3D56" cx="107.711" cy="27.142" rx="3.963" ry="1.913"/><ellipse fill="#57B894" fill-rule="nonzero" cx="109.44" cy="34.512" rx="3.963" ry="1.913"/><ellipse stroke="#3F3D56" cx="109.007" cy="34.228" rx="3.963" ry="1.913"/><ellipse fill="#57B894" fill-rule="nonzero" cx="108.719" cy="16.795" rx="3.963" ry="1.913"/><ellipse stroke="#3F3D56" cx="108.143" cy="16.512" rx="3.963" ry="1.913"/><ellipse fill="#57B894" fill-rule="nonzero" cx="98.633" cy="15.661" rx="3.963" ry="1.913"/><ellipse stroke="#3F3D56" cx="98.2" cy="15.378" rx="3.963" ry="1.913"/><ellipse fill="#57B894" fill-rule="nonzero" cx="103.244" cy="11.693" rx="3.963" ry="1.913"/><ellipse stroke="#3F3D56" cx="102.811" cy="11.409" rx="3.963" ry="1.913"/><ellipse fill="#57B894" fill-rule="nonzero" cx="112.898" cy="12.402" rx="3.963" ry="1.913"/><ellipse stroke="#3F3D56" cx="112.466" cy="12.118" rx="3.963" ry="1.913"/><ellipse fill="#57B894" fill-rule="nonzero" cx="120.103" cy="17.787" rx="3.963" ry="1.913"/><ellipse stroke="#3F3D56" cx="119.67" cy="17.504" rx="3.963" ry="1.913"/><ellipse fill="#57B894" fill-rule="nonzero" cx="94.598" cy="8.291" rx="3.963" ry="1.913"/><ellipse stroke="#3F3D56" cx="94.022" cy="8.008" rx="3.963" ry="1.913"/><ellipse fill="#57B894" fill-rule="nonzero" cx="97.048" cy="2.197" rx="3.963" ry="1.913"/><ellipse stroke="#3F3D56" cx="96.615" cy="1.913" rx="3.963" ry="1.913"/><ellipse fill="#57B894" fill-rule="nonzero" cx="119.959" cy="6.732" rx="3.963" ry="1.913"/><ellipse stroke="#3F3D56" cx="119.526" cy="6.307" rx="3.963" ry="1.913"/><ellipse fill="#57B894" fill-rule="nonzero" cx="83.647" cy="21.614" rx="3.963" ry="1.913"/><ellipse stroke="#3F3D56" cx="83.07" cy="21.331" rx="3.963" ry="1.913"/><ellipse fill="#57B894" fill-rule="nonzero" cx="97.192" cy="20.622" rx="3.963" ry="1.913"/><ellipse stroke="#3F3D56" cx="96.759" cy="20.339" rx="3.963" ry="1.913"/><ellipse fill="#57B894" fill-rule="nonzero" cx="115.059" cy="22.181" rx="3.963" ry="1.913"/><ellipse stroke="#3F3D56" cx="114.627" cy="21.756" rx="3.963" ry="1.913"/><ellipse fill="#57B894" fill-rule="nonzero" cx="105.693" cy="22.606" rx="3.963" ry="1.913"/><ellipse stroke="#3F3D56" cx="105.261" cy="22.465" rx="3.963" ry="1.913"/><ellipse fill="#57B894" fill-rule="nonzero" cx="106.414" cy="6.591" rx="3.963" ry="1.913"/><ellipse stroke="#3F3D56" cx="105.837" cy="6.165" rx="3.963" ry="1.913"/><ellipse fill="#57B894" fill-rule="nonzero" cx="89.411" cy="16.654" rx="3.963" ry="1.913"/><ellipse stroke="#3F3D56" cx="88.834" cy="16.37" rx="3.963" ry="1.913"/><ellipse fill="#57B894" fill-rule="nonzero" cx="91.572" cy="23.74" rx="3.963" ry="1.913"/><ellipse stroke="#3F3D56" cx="91.14" cy="23.457" rx="3.963" ry="1.913"/><g opacity=".3" transform="translate(88.917 34.148)"><ellipse fill="#57B894" fill-rule="nonzero" transform="rotate(-60.799 2.068 2.204)" cx="2.068" cy="2.204" rx="2.032" ry="1"/><ellipse stroke="#3F3D56" transform="rotate(-60.799 1.8 2.35)" cx="1.8" cy="2.35" rx="2.032" ry="1"/></g><g opacity=".3" transform="translate(108.65 37.84)"><ellipse fill="#57B894" fill-rule="nonzero" transform="rotate(-48.172 2.203 2.268)" cx="2.203" cy="2.268" rx="1" ry="2.03"/><ellipse stroke="#3F3D56" transform="rotate(-48.172 2.114 1.99)" cx="2.114" cy="1.99" rx="1" ry="2.03"/></g><g opacity=".3" transform="translate(90.062 27.635)"><ellipse fill="#57B894" fill-rule="nonzero" transform="rotate(-48.172 2.203 2.268)" cx="2.203" cy="2.268" rx="1" ry="2.03"/><ellipse stroke="#3F3D56" transform="rotate(-48.172 2.114 1.99)" cx="2.114" cy="1.99" rx="1" ry="2.03"/></g></g></svg>