<svg height="90" width="130" xmlns="http://www.w3.org/2000/svg"><g fill="none"><path d="m35.134 82.088h-31.709s-.643-9.418 3.16-9.525 3.375 4.174 8.142-1.713c4.767-5.886 10.552-5.565 11.301-2.086.75 3.478-1.446 6.26 2.571 5.404 4.018-.856 9.802 1.391 6.535 7.92z" fill="#98d1dd"/><path d="m18.86 82.088-.107-.004c.25-6.234 1.557-10.239 2.61-12.501 1.141-2.456 2.242-3.45 2.253-3.46l.072.08c-.011.01-1.099.994-2.232 3.434-1.046 2.252-2.346 6.24-2.596 12.45zm11.416 0-.102-.03c1.23-4.296 4.129-7.008 4.158-7.034l.071.08c-.028.026-2.905 2.72-4.127 6.984zm-21.798 0-.107-.015c.424-3.029-.342-5.379-1.06-6.817-.775-1.556-1.661-2.406-1.671-2.416l.075-.077c.009.008.909.872 1.694 2.446.724 1.451 1.497 3.823 1.07 6.879z" fill="#f2f2f2"/><path d="m39.506 82.23h-39.442l-.009-.135c-.023-.333-.526-8.193 2.014-10.997.568-.627 1.252-.956 2.034-.978 1.655-.047 2.696.574 3.535 1.073 1.582.941 2.627 1.563 6.427-3.145 4.116-5.1 8.558-6.198 11.11-5.588 1.65.394 2.787 1.509 3.12 3.058.315 1.466.215 2.844.134 3.952-.086 1.184-.154 2.12.331 2.544.405.354 1.214.386 2.545.101 2.707-.579 6.485-.083 8.381 2.373 1.02 1.321 1.824 3.723-.14 7.662zm-39.173-.289h38.995c1.464-2.978 1.51-5.493.131-7.278-1.739-2.253-5.388-2.846-8.094-2.268-1.446.31-2.308.259-2.793-.165-.594-.519-.52-1.518-.429-2.782.08-1.09.178-2.445-.128-3.87-.309-1.437-1.368-2.472-2.906-2.84-2.471-.59-6.789.493-10.821 5.49-3.956 4.9-5.147 4.192-6.796 3.212-.85-.506-1.814-1.079-3.381-1.034-.7.02-1.316.317-1.83.884-2.281 2.521-2.003 9.59-1.947 10.651z" fill="#cfcce0"/><path d="m124.386 82.088h-31.71s-.642-9.418 3.16-9.525c3.804-.107 3.375 4.174 8.142-1.713 4.767-5.886 10.552-5.565 11.302-2.086.75 3.478-1.446 6.26 2.571 5.404s9.802 1.391 6.535 7.92z" fill="#98d1dd"/><path d="m107.97 82.088-.107-.004c.251-6.234 1.558-10.239 2.61-12.501 1.142-2.456 2.243-3.45 2.254-3.46l.071.08c-.01.01-1.098.994-2.231 3.434-1.047 2.252-2.346 6.24-2.596 12.45zm11.557 0-.102-.03c1.231-4.296 4.13-7.008 4.159-7.034l.071.08c-.029.026-2.906 2.72-4.128 6.984zm-21.797 0-.107-.015c.424-3.029-.342-5.379-1.06-6.817-.776-1.557-1.663-2.407-1.671-2.416l.074-.077c.01.008.91.872 1.694 2.446.724 1.451 1.498 3.823 1.07 6.879z" fill="#f2f2f2"/><path d="m128.758 82.23h-39.442l-.01-.135c-.022-.333-.525-8.193 2.015-10.997.568-.627 1.252-.956 2.033-.978 1.656-.047 2.697.574 3.536 1.073 1.582.941 2.627 1.563 6.427-3.145 4.116-5.1 8.557-6.198 11.11-5.588 1.65.394 2.787 1.509 3.12 3.058.315 1.466.214 2.844.134 3.952-.086 1.184-.155 2.12.33 2.544.406.354 1.215.386 2.546.101 2.707-.579 6.485-.083 8.38 2.373 1.02 1.321 1.824 3.723-.14 7.662l-.04.08zm-39.173-.288h38.995c1.464-2.978 1.51-5.493.131-7.278-1.74-2.253-5.389-2.846-8.095-2.268-1.446.31-2.307.259-2.793-.165-.593-.519-.52-1.518-.428-2.782.08-1.09.178-2.445-.128-3.87-.309-1.437-1.368-2.472-2.906-2.84-2.472-.59-6.789.493-10.821 5.49-3.956 4.9-5.147 4.192-6.796 3.212-.85-.506-1.815-1.079-3.382-1.034-.7.02-1.315.317-1.829.884-2.283 2.52-2.004 9.588-1.948 10.65z" fill="#cfcce0"/><path d="m61.123 55.243c-2.787 0-5.23 2.904-6.578 7.24-.095.304-.184.617-.268.934a27 27 0 0 0 -.839 6.803c0 8.258 3.447 14.976 7.685 14.976 4.237 0 7.684-6.718 7.684-14.976 0-8.259-3.447-14.977-7.684-14.977zm0 29.716c-4.106 0-7.446-6.613-7.446-14.74a26.846 26.846 0 0 1 .85-6.829c.078-.298.162-.59.252-.877 1.311-4.216 3.664-7.032 6.344-7.032 4.105 0 7.446 6.612 7.446 14.739 0 8.126-3.34 14.739-7.446 14.739z" fill="#3f3d56"/><path d="m62.956 78.98c-1.463 0-2.609-3.817-2.609-8.69 0-4.872 1.146-8.689 2.609-8.689 1.462 0 2.608 3.817 2.608 8.69 0 4.872-1.146 8.689-2.608 8.689zm0-17.14c-1.286 0-2.372 3.87-2.372 8.45 0 4.581 1.086 8.451 2.372 8.451 1.285 0 2.37-3.87 2.37-8.45 0-4.581-1.085-8.451-2.37-8.451z" fill="#3f3d56"/><ellipse cx="63.308" cy="70.22" fill="#cfcce0" rx="1" ry="1.978"/><path d="m61.052 43.152 16.215-.059v6.408l-16.215.656zm-14.003 21.84-.238-.013.722-13.127h14.788v.239h-14.562zm-.005 21.193-8.27-1.457.049-.238 8.27 1.458zm1.758 2.982.02-.238 10.099.834-.02.237z" fill="#3f3d56"/><path d="m72.19 64.956a20.4 20.4 0 0 0 -.251.86l-.249.028-7.73.844-17.713-1.751 18.425-.934 7.286.923.233.03z" fill="#3f3d56"/><path d="m68.227 22.39s-2.57-.917-4.222 2.75c-1.652 3.666-4.222 7.7-4.222 7.7l1.469.366s.367-2.566 1.285-2.933l-.368 3.3s11.014 3.85 15.97-.367l-.183-1.283s.734.183.734 1.283l.55-.55s-.55-1.1-2.202-2.566c-1.084-.963-1.457-2.794-1.585-3.94a4.764 4.764 0 0 0 -1.099-2.595c-1.098-1.271-3.098-2.622-6.127-1.165z" fill="#2f2e41"/><path d="m54.055 25.856-1.056-11.191s-2.11-6.072 1.056-5.596 1.29 5.12 1.29 5.12l1.76 11.667zm-8.444 50.863-1.197 4.035 2.273 1.899 1.675-5.103zm9.172 2.967-1.204 4.297 4.213 2.626s.12-4.894.722-5.849z" fill="#ffb9b9"/><path d="m59.948 56.88-.593 1.191s-6.762-3.096-8.542 1.191c-1.779 4.288-5.694 17.865-5.694 17.865l3.44 1.429 6.288-14.41 14.354-.358.593-7.98z" fill="#2f2e41"/><path d="m64.844 58.926s-9.745-2.02-10.458 2.852c-.713 4.871.357 14.138.476 14.376.119.237-.476 4.633-.476 4.633l4.278.594s2.733-12.95 1.545-16.276l8.04-.498c2.776-.171 5.043-2.363 5.203-5.139.06-1.062-.205-2.027-1.122-2.561-2.852-1.664-8.08-1.664-8.08-1.664zm-18.761 21.792s-.837-1.785-2.032-.952c-1.194.833-3.942 2.619-3.942 2.619s-4.251 1.49-.478 2.499c3.356.897 4.181.714 4.181.714s2.748.476 3.107.238c.358-.238.597-4.046.597-4.046s-1.672-.358-1.433-1.072zm9.28 3.632s-1.194-1.67-2.03-.954-3.822 2.744-3.822 2.744-5.016 1.43-.597 2.743c4.419 1.312 9.315 1.073 9.435.596s-.24-3.936-.24-3.936-2.507-.119-2.746-1.192z" fill="#2f2e41"/><ellipse cx="69.582" cy="29.882" fill="#ffb9b9" rx="4.3" ry="4.309"/><path d="m66.414 31.93s-.238 4.86-1.426 5.215c-1.188.356-4.515 4.266-2.97 5.451 1.544 1.185 10.455.356 10.455.356l-.832-6.162s-1.9-1.304-.356-3.556l-4.871-1.303z" fill="#ffb9b9"/><path d="m66.297 40.025-.83-3.917-2.731-1.069-2.256 5.224s-2.553 16.916-1.84 17.153c.4.141.823.202 1.246.178 0 0 3.8-1.187 4.987-.593 1.187.593 7.36 1.068 7.36 1.068s4.275-2.255 4.037-4.274c-.237-2.018 0-13.295 0-13.295l-.534-5.045-4.684.732z" fill="#cfcce0"/><path d="m62.885 35.592-.119-.716-3.337-4.057-1.907-6.8-4.648 1.789 3.337 8.233 4.767 6.085z" fill="#cfcce0"/><path d="m63.915 30.377s1.474-2.025 2.764-2.394c1.29-.368 1.474-2.209 1.474-2.209s3.316 3.682 5.343 3.866c2.026.184.184-4.418.184-4.418l-3.685-.92-3.5.368-2.764 1.84z" fill="#2f2e41"/><g fill="#3f3d56"><path d="m77.735 57.943-.115-4.864h-11.043l-.353 13.043-.237-.006.359-13.275h11.503l.004.115.119 4.979zm-.232-6.656h-.236v-9.042l3.807 1.11-.066.228-3.505-1.023z"/><path d="m78.606 57.786c-2.786 0-5.23 2.904-6.577 7.24-.095.305-.185.617-.268.935a27 27 0 0 0 -.839 6.802c0 8.258 3.447 14.976 7.684 14.976 4.238 0 7.685-6.718 7.685-14.976s-3.447-14.977-7.685-14.977zm0 29.716c-4.105 0-7.446-6.613-7.446-14.739a26.846 26.846 0 0 1 .85-6.83c.079-.298.163-.59.252-.877 1.312-4.216 3.665-7.032 6.344-7.032 4.106 0 7.446 6.612 7.446 14.739 0 8.126-3.34 14.739-7.446 14.739z"/><path d="m80.44 81.381c-1.463 0-2.61-3.816-2.61-8.689 0-4.872 1.147-8.689 2.61-8.689 1.462 0 2.608 3.817 2.608 8.69 0 4.872-1.146 8.688-2.609 8.688zm0-17.14c-1.286 0-2.372 3.87-2.372 8.451s1.086 8.45 2.371 8.45c1.286 0 2.372-3.869 2.372-8.45 0-4.58-1.086-8.45-2.372-8.45z"/></g><ellipse cx="80.651" cy="72.763" fill="#cfcce0" rx="1" ry="1.978"/><path d="m79.1 41.962 2.538.952-.484 1.309-2.054-.833zm-9.87 10.314v1.837h7.05v-1.715zm-18.189-.989v1.837h7.05v-1.715zm24.252-40.267h-48.363v-11.02h48.362v11.02zm-48.078-.286h47.793v-10.448h-47.793z" fill="#3f3d56"/><path d="m30.738 3.673h5.358v5.369h-5.358z" fill="#98d1dd"/><path d="m35.39 8.336h-5.64v-5.652h5.64zm-5.357-.283h5.075v-5.086h-5.075zm14.24-4.238h25.38v1h-25.38zm0 1.978h25.38v1h-25.38zm0 2.119h25.38v1h-25.38zm19.74 38.688h-.057v-1.595a.93.93 0 0 0 -.267-.653.906.906 0 0 0 -.645-.27h-3.336a.906.906 0 0 0 -.645.27.93.93 0 0 0 -.267.653v8.75c0 .245.096.48.267.653s.403.27.645.27h3.336a.906.906 0 0 0 .645-.27.93.93 0 0 0 .267-.653v-6.02h.057z" fill="#3f3d56"/><circle cx="61.334" cy="46.907" fill="#d0cde1" r="1"/><path d="m75.646 52.441-11.21-.213s-6.26 1.45-5.422-1.719c.837-3.168 5.221-.724 5.221-.724l11.763-.448z" fill="#ffb9b9"/><path d="m74.52 36.138 1.07-.832s1.786-.95 2.143 2.377 2.975 14.378.357 14.497-9.283.238-9.283.238l.714-3.684 5.475-.357z" fill="#cfcce0"/><path d="m74.87 41.256-.36 6.833-5.28 1.079 4.8-1.918z" fill="#000" opacity=".15"/></g></svg>