<svg width="132" height="90" xmlns="http://www.w3.org/2000/svg"><g fill-rule="nonzero" fill="none"><path d="M120.665 60.326a1.422 1.422 0 0 1 .386-2.146l-.931-4.966 2.42 1.017.513 4.56a1.43 1.43 0 0 1-2.388 1.535Z" fill="#FFB6B6"/><path fill="#E6E6E6" d="M8.644 2.913h106.27V53.34H8.644z"/><path fill="#FFF" d="M11.683 7.238h100.192v42.073H11.683z"/><path fill="#98D1DD" d="M8.598 0h106.27v4.515H8.598z"/><circle fill="#FFF" cx="11.953" cy="2.088" r="1"/><circle fill="#FFF" cx="15.129" cy="2.088" r="1"/><circle fill="#FFF" cx="18.306" cy="2.088" r="1"/><path d="M17.542 34.306a.44.44 0 0 0 0 .878h24.094a.44.44 0 0 0 0-.878H17.542ZM17.542 36.94a.44.44 0 0 0 0 .879h12.3a.44.44 0 0 0 0-.878h-12.3Z" fill="#E6E6E6"/><path d="M41.666 41.915h-9.152a.448.448 0 0 1-.447-.447v-1.466c0-.247.2-.447.447-.448h9.152c.247 0 .447.2.447.448v1.466c0 .247-.2.447-.447.447ZM41.666 26.645h-9.152a.448.448 0 0 1-.447-.447V24.73c0-.246.2-.446.447-.447h9.152c.247 0 .447.2.447.447v1.467c0 .247-.2.447-.447.447Z" fill="#98D1DD"/><path d="M57.798 14.596a.573.573 0 0 0 0 1.146h47.919a.573.573 0 0 0 0-1.146H57.798ZM57.798 18.034a.573.573 0 0 0 0 1.146h32.53a.573.573 0 0 0 0-1.146h-32.53ZM57.798 21.394a.573.573 0 0 0 0 1.146h47.919a.573.573 0 0 0 0-1.146H57.798ZM57.798 24.832a.573.573 0 0 0 0 1.146h32.53a.573.573 0 0 0 0-1.146h-32.53Z" fill="#E6E6E6"/><path d="M105.857 32.267h-9.152a.448.448 0 0 1-.447-.447v-1.466c0-.247.2-.447.447-.447h9.152c.247 0 .447.2.447.447v1.466c0 .247-.2.447-.447.447Z" fill="#98D1DD"/><path d="M27.919 15.216c-.163 0-.294.212-.294.472s.132.47.294.47h13.882c.162 0 .294-.212.293-.472 0-.26-.131-.47-.293-.47H27.919ZM27.919 17.944c-.163 0-.294.212-.294.472 0 .259.132.469.294.47h13.882c.162-.001.294-.212.293-.472 0-.26-.131-.47-.293-.47H27.919ZM27.919 20.639c-.163 0-.294.212-.294.472 0 .259.132.469.294.47h5.973c.163-.001.294-.212.294-.472s-.132-.47-.294-.47H27.92Z" fill="#E4E4E4"/><circle fill="#E4E4E4" cx="20.871" cy="18.363" r="3.767"/><path d="M98.87 31.521a1.422 1.422 0 0 0 1.478 1.603l1.882 4.689 1.496-2.158-2.017-4.122a1.43 1.43 0 0 0-2.84-.012ZM120.096 87.911h-1.734l-.824-6.686h2.558z" fill="#FFB6B6"/><path d="M120.538 89.592h-5.59v-.071c0-1.202.975-2.176 2.176-2.176h3.414v2.247Z" fill="#2F2E41"/><path fill="#FFB6B6" d="m114.423 87.856-1.652-.523 1.232-6.623 2.439.772z"/><path d="m114.338 89.592-5.329-1.687.022-.068a2.176 2.176 0 0 1 2.73-1.417l3.255 1.03-.678 2.142ZM112.37 55.234s-2.571 4.038-1.663 7.643c.91 3.604 1.899 10.532 1.899 10.532l4.928 11.727 3.673-.15-3.648-13.826.144-9.245s2.536-4.419 2.042-5.794c-.494-1.375-7.375-.887-7.375-.887Z" fill="#2F2E41"/><path d="M120.773 56.678s.316 4.006-.673 5.703c-.99 1.696-2.045 8.154-2.045 8.154l-1.682 12.916-3.484-1.134 2.97-14.47 2.336-11.383 2.578.214Z" fill="#2F2E41"/><path d="m122.008 37.284-2.718-1.869-4.137-.12-1.441 1.413-2.199 1.122-.203 18.291s6.584 3.156 10.126 1.632l1.703-14.248c.707-2.828-1.13-6.221-1.13-6.221Z" fill="#3F3D56"/><path d="M112.065 42.718h-7.251l-4.764-8.2 3.097-1.228 2.624 4.667 3.797-.344 2.371-.114a2.611 2.611 0 0 1 2.718 2.926 2.614 2.614 0 0 1-2.592 2.293Z" fill="#3F3D56"/><circle fill="#FFB6B6" cx="117.558" cy="30.202" r="3.587"/><path d="M121.88 29.386c-.11-.788-.643-1.536-1.401-1.774-.302-.875-1.1-1.52-1.982-1.8a3.87 3.87 0 0 0-4.449 1.623c-.067.106-.275.366-.269.493.007.16.253.327.377.428.306.237.637.44.986.608 1.29.67.86 1.72.843 2.911-.009.579.184 1.073.678 1.403.712.478 1.731.288 2.506.096.88-.217 1.61-.99 2.112-1.734.444-.66.71-1.467.6-2.254Z" fill="#2F2E41"/><path fill="#3F3D56" d="m121.906 41.954 1.395 15.31-4.484-.24z"/><path d="M137.358 90H82.457a.168.168 0 0 1 0-.337h54.9a.168.168 0 0 1 0 .337Z" fill="#CACACA"/><path fill="#9E616A" d="M11.889 88.322h1.344l.64-5.187h-1.984z"/><path d="M11.546 87.883h2.648c.932 0 1.687.755 1.687 1.687v.055h-4.335v-1.742Z" fill="#2F2E41"/><path fill="#9E616A" d="M24.282 88.322h1.344l.64-5.187h-1.985z"/><path d="M23.939 87.883h2.647c.932 0 1.688.755 1.688 1.687v.055h-4.335v-1.742Z" fill="#2F2E41"/><path fill="#9E616A" d="m22.658 46.658.877 5.593-8.334.11 1.096-5.374z"/><path d="m23.294 50.886 2.654 7.068.33 29.293h-2.249l-5.374-23.535-4.935 22.92h-2.193l1.535-25.772s-.453-5.172 1.864-8.225l.564-1.63 7.804-.12Z" fill="#2F2E41"/><path d="M11.907 56.396a1.645 1.645 0 0 0 1.054-2.292l3.546-11.56-2.608-.517-3.243 11.331a1.654 1.654 0 0 0 1.25 3.038Z" fill="#9E616A"/><path d="M16.583 49.747a.75.75 0 0 1-.745-.693c-.082-1.129-.491-3.094-1.214-5.84a4.622 4.622 0 0 1 7.299-4.827 4.563 4.563 0 0 1 1.76 3.12c.36 3.166-.318 6.344-.626 7.563a.751.751 0 0 1-.712.566l-5.746.111h-.016Z" fill="#3F3D56"/><path d="M32.635 39.593a1.612 1.612 0 0 0-.085.24l-7.191 2.443-1.39-1.214-2.106 1.858 2.25 2.388c.374.396.965.498 1.45.25l7.695-3.93a1.608 1.608 0 1 0-.623-2.035Z" fill="#9E616A"/><path d="m25.108 42.41-2.622 2.29a.69.69 0 0 1-1.033-.147l-1.875-2.92a1.914 1.914 0 0 1 2.89-2.51l2.633 2.243a.69.69 0 0 1 .007 1.043ZM16.092 45.504l-3.24-1.273a.69.69 0 0 1-.345-.985l1.729-3.01a1.914 1.914 0 0 1 3.559 1.411l-.779 3.37a.69.69 0 0 1-.924.487Z" fill="#3F3D56"/><circle fill="#9E616A" cx="18.494" cy="33.188" r="3.524"/><path d="M55.069 90H.168a.168.168 0 0 1 0-.337h54.9a.168.168 0 0 1 0 .337Z" fill="#CACACA"/><path d="m20.918 31.772 2.269-.013c.054-.515-.176-1.028-.51-1.424a5.805 5.805 0 0 0-1.194-.987c-.434-.298-.883-.602-1.399-.706-.432-.087-.879-.027-1.315.034l-1.737.241c-.636.089-1.3.189-1.817.57-.698.515-.965 1.418-1.19 2.257l-1.241 4.64 7.334.769c.265.045.537.038.8-.023a.687.687 0 0 0 .51-.56c.021-.298-.216-.543-.408-.773a3.614 3.614 0 0 1-.312-4.087l.21.062Z" fill="#2F2E41"/></g></svg>