<svg width="33" height="22" xmlns="http://www.w3.org/2000/svg"><defs><linearGradient x1="22.381%" y1="-38.491%" x2="55.22%" y2="48.303%" id="a"><stop stop-color="#FF4EA3" offset="0%"/><stop stop-color="#FF5E5B" offset="100%"/></linearGradient></defs><g fill-rule="nonzero" fill="none"><path d="M25.271 12.46c-1.15.127-2.105.061-2.105.061V5.322h1.467c.956 0 1.85.384 2.484 1.15.444.511.766 1.211.765 2.233 0 2.355-1.21 3.31-2.61 3.755Zm6.182-5.032c-.444-2.233-1.593-3.633-2.866-4.461-1.272-.894-2.804-1.339-4.332-1.339H2.327c-.766 0-1.083.766-1.083 1.149v.255s-.062 9.686.06 14.913c.19 3.06 3.25 3.06 3.25 3.06s10.003 0 14.847-.06c.255 0 .444 0 .7-.062 2.738-.7 2.994-3.25 2.994-4.654 5.486.246 9.374-3.642 8.358-8.802Z" fill="#FFF"/><g fill="#000"><path d="M32.246 7.277V7.27l-.002-.006c-.544-2.73-2.042-4.208-3.204-4.967-1.361-.952-3.06-1.477-4.785-1.477L2.328.82C1.095.82.438 1.956.438 2.777v.25c0 .097-.06 9.754.06 14.936l.002.031c.122 1.97 1.236 2.911 2.15 3.354.943.458 1.866.464 1.905.464h.004c.41 0 10.098 0 14.847-.06.276 0 .536 0 .884-.084l.012-.003c1.444-.37 2.474-1.215 3.06-2.513.276-.613.443-1.304.509-2.109 1.325-.033 2.572-.295 3.707-.78 1.197-.51 2.21-1.24 3.01-2.17 1.574-1.828 2.163-4.249 1.659-6.816ZM2.111 17.91c-.118-5.092-.062-14.48-.06-14.879v-.25c.004-.023.06-.347.276-.347h21.928c1.4 0 2.774.424 3.868 1.193a.709.709 0 0 0 .024.016c1.319.858 2.165 2.184 2.515 3.94.408 2.073-.053 4.01-1.297 5.456-1.402 1.63-3.673 2.498-6.233 2.383a.81.81 0 0 0-.843.806c0 2.193-.78 3.46-2.38 3.87-.159.038-.274.038-.502.038h-.016c-4.213.053-12.353.06-14.748.06h-.087c-.006 0-.605-.01-1.203-.301-.761-.37-1.18-1.038-1.242-1.987v.002Z"/><path d="M23.11 13.326a14.151 14.151 0 0 0 2.25-.064.82.82 0 0 0 .155-.033c2.106-.669 3.174-2.191 3.174-4.525 0-1.094-.323-2.022-.957-2.752-.768-.926-1.87-1.436-3.1-1.436h-1.466a.808.808 0 0 0-.807.806v7.2c0 .421.33.775.75.804h.001Zm.863-1.596v-5.6h.66c.743 0 1.404.304 1.862.856l.012.015c.382.44.568.996.568 1.703 0 1.61-.591 2.498-1.974 2.962-.36.037-.74.058-1.128.063Z"/></g><path d="M12.013 16.92c.256.127.383 0 .383 0s3.505-3.189 5.1-5.033c1.399-1.655 1.465-4.398-.895-5.415-2.421-1.022-4.399 1.21-4.399 1.21-1.721-1.91-4.332-1.783-5.543-.51-1.21 1.272-.766 3.442.127 4.715.828 1.149 4.526 4.46 5.099 4.971 0-.066.066 0 .127.062h.001Z" fill="#FF5E5B"/><path d="M11.71 16.193c.141.029.264-.094.264-.094s3.505-3.188 5.1-5.032c1.399-1.656 1.465-4.399-.895-5.416-2.421-1.022-4.399 1.21-4.399 1.21-1.721-1.91-4.332-1.783-5.543-.51-1.21 1.272-.766 3.443.127 4.715.78 1.083 4.692 4.603 5.18 5.042a.33.33 0 0 0 .165.085Z" fill="url(#a)" transform="translate(.422 .82)"/></g></svg>