<svg width="39" height="24" xmlns="http://www.w3.org/2000/svg"><g fill="none" fill-rule="evenodd"><path d="M37.816 7.608c-.513-2.53-1.972-4.107-3.467-5.082C32.803 1.518 30.95 1 29.065 1H2.3c-.931 0-1.288.849-1.291 1.274l.002.277S.968 13.61 1.05 19.515C1.303 23 5.044 23 5.044 23s12.214-.033 18.07-.067c.276-.002.55-.03.816-.092 3.335-.78 3.68-3.672 3.645-5.285 6.703.348 11.433-4.07 10.24-9.948zm-7.53 5.739c-1.43.167-2.591.042-2.591.042V5.214h1.759c1.162 0 2.284.452 3.042 1.275.534.58.962 1.394.962 2.52 0 2.753-1.52 3.838-3.172 4.338z" fill="#FFFFFE"/><path d="M37.816 7.608c-.513-2.53-1.972-4.107-3.467-5.082C32.803 1.518 30.95 1 29.065 1H2.3c-.931 0-1.288.849-1.291 1.274l.002.277S.968 13.61 1.05 19.515C1.303 23 5.044 23 5.044 23s12.214-.033 18.07-.067c.276-.002.55-.03.816-.092 3.335-.78 3.68-3.672 3.645-5.285 6.703.348 11.433-4.07 10.24-9.948zm-7.53 5.739c-1.43.167-2.591.042-2.591.042V5.214h1.759c1.162 0 2.284.452 3.042 1.275.534.58.962 1.394.962 2.52 0 2.753-1.52 3.838-3.172 4.338z" stroke="#2E343B" stroke-width=".689"/><path d="M13.989 17.667c.302.137.495-.034.495-.034s4.42-3.63 6.41-5.722c1.771-1.87 1.887-5.023-1.154-6.201-3.042-1.178-5.544 1.385-5.544 1.385-2.17-2.148-5.453-2.04-6.972-.585-1.52 1.454-.989 3.95.144 5.338 1.064 1.304 5.74 5.055 6.448 5.69 0 0 .051.048.173.129z" fill="#E05958"/></g></svg>